Coordinates
version=1
nRows=21
nColumns=19
inDegrees=yes

Units are S.I. units (second, meters, Newtons, ...)
If the header above contains a line with 'inDegrees', this indicates whether rotational values are in degrees (yes) or radians (no).

endheader
time	pelvis_tilt	pelvis_list	pelvis_rotation	pelvis_tx	pelvis_ty	pelvis_tz	hip_flexion_r	hip_adduction_r	hip_rotation_r	knee_angle_r	knee_angle_r_beta	ankle_angle_r	hip_flexion_l	hip_adduction_l	hip_rotation_l	knee_angle_l	knee_angle_l_beta	ankle_angle_l
     17.19333333	      0.08450149	      4.33099156	      5.19261698	      2.19485459	      1.10163247	      1.03230355	    -23.27552562	     -5.30732682	    -21.00693853	     61.93582492	      1.08098407	    -11.92136225	     24.50724360	      9.84998592	      1.78876320	     11.23268002	      0.19604725	      6.37893976
     17.20000000	      0.23595123	      4.63374662	      5.34812372	      2.19384149	      1.09813316	      1.03221671	    -21.70668099	     -5.60169887	    -19.88700473	     66.84106449	      1.16659665	    -11.43144557	     24.18554894	      9.97964277	      0.37137519	     12.72658448	      0.22212080	      5.57450126
     17.20666667	      0.41511269	      5.08418636	      5.58871233	      2.19247129	      1.09425730	      1.03220027	    -20.11609627	     -6.01892246	    -19.02298568	     71.74583207	      1.25220099	    -10.81144692	     24.00781127	     10.21491397	     -1.15888759	     14.80331678	      0.25836662	      4.74637142
     17.21333333	      0.44250315	      5.57451432	      5.92066702	      2.19064319	      1.08976143	      1.03215741	    -18.28143603	     -6.49441356	    -18.33840160	     76.66968372	      1.33813842	    -10.06871713	     24.16480755	     10.46682996	     -2.64608123	     17.40972888	      0.30385709	      4.09984961
     17.22000000	      0.36440528	      6.05682956	      6.41166808	      2.18844280	      1.08481680	      1.03209612	    -16.28839133	     -6.95247645	    -17.87684945	     81.51063387	      1.42262894	     -9.18814752	     24.55757111	     10.70652576	     -3.93547458	     20.43976614	      0.35674122	      3.64347595
     17.22666667	      0.13651702	      6.56571098	      6.97516253	      2.18587127	      1.07947572	      1.03202443	    -14.05718556	     -7.48984716	    -17.51520918	     86.29284971	      1.50609435	     -8.19642399	     25.14674428	     10.97790790	     -4.98346507	     23.68858246	      0.41344376	      3.55392690
     17.23333333	     -0.15675530	      7.09207865	      7.63709736	      2.18295989	      1.07398876	      1.03193301	    -11.69417842	     -8.07897733	    -17.25121963	     90.94375066	      1.58726788	     -7.07777057	     25.77935144	     11.30750122	     -5.69793262	     27.02723212	      0.47171419	      3.86594085
     17.24000000	     -0.52005294	      7.63327911	      8.37990897	      2.17970361	      1.06852669	      1.03177088	     -9.18156823	     -8.74835080	    -17.04025534	     95.44321076	      1.66579828	     -5.85790904	     26.39377464	     11.73125177	     -6.03768197	     30.30878135	      0.52898803	      4.61636271
     17.24666667	     -0.92835444	      8.23902142	      9.16833643	      2.17617782	      1.06325974	      1.03156915	     -6.54342267	     -9.56298251	    -16.80798450	     99.76178323	      1.74117159	     -4.55069850	     26.89915596	     12.30916785	     -6.05958694	     33.40275504	      0.58298805	      5.75902770
     17.25333333	     -0.44975901	      9.19466073	      9.91141525	      2.17253953	      1.05954638	      1.03146049	     -4.94233413	    -10.68572392	    -16.62930319	    103.66053733	      1.80921768	     -3.55917736	     26.10882210	     13.19237558	     -5.82088083	     36.04431804	      0.62909203	      7.41541123
     17.26000000	     -1.83775413	      9.47422750	     10.70865315	      2.16848078	      1.05398725	      1.03114044	     -0.79289401	    -11.41275079	    -15.89510648	    107.71952006	      1.88006029	     -1.87314594	     27.38822112	     13.71998585	     -5.33884809	     38.68162547	      0.67512172	      9.13525546
     17.26666667	     -2.37636288	     10.00662169	     11.38661551	      2.16440123	      1.05004080	      1.03099357	      2.43648827	    -12.31081184	    -15.06957782	    111.30384568	      1.94261858	     -0.58590653	     27.41155959	     14.39034163	     -4.78257530	     40.82407621	      0.71251454	     11.12776148
     17.27333333	     -2.41271025	     10.85481335	     11.88742634	      2.16053856	      1.04750890	      1.03102919	      5.13345929	    -13.51716903	    -14.00618099	    114.46743853	      1.99783369	      0.86386260	     26.44000013	     15.31954632	     -4.10392826	     42.25764848	      0.73753510	     13.23895264
     17.28000000	     -3.06962736	     11.21541586	     12.24918366	      2.15666643	      1.04473992	      1.03116295	      8.91045735	    -14.19827982	    -12.46129504	    117.37107178	      2.04851165	      1.89056724	     26.08063962	     15.77562591	     -3.48540439	     43.50223702	      0.75925727	     15.36281167
     17.28666667	     -2.76837709	     11.67168288	     12.52071728	      2.15377087	      1.04422549	      1.03143283	     11.46251011	    -14.73916255	    -11.04033734	    119.47860280	      2.08529500	      2.92215075	     24.21609459	     16.15419163	     -2.64650409	     44.07712153	      0.76929090	     17.40203320
     17.29333333	     -0.37001616	     11.83173033	     13.05483414	      2.15371385	      1.04853565	      1.03143723	     10.90546475	    -14.45898510	    -10.82843301	    119.88422133	      2.09237438	      3.67134063	     19.33820747	     15.91240455	     -0.85508875	     43.75625700	      0.76369075	     19.34570633
     17.30000000	      2.10409413	     11.69879295	     13.28777815	      2.15362150	      1.05349423	      1.03153700	     10.46585876	    -13.77714487	    -10.42220107	    119.93239675	      2.09321520	      4.41005225	     14.25624820	     15.13131844	      0.81813356	     42.96742732	      0.74992308	     20.96071754
     17.30666667	      4.00880055	     11.28061021	     13.13560853	      2.15304286	      1.05780962	      1.03178293	     11.03031498	    -12.84650080	     -9.48103295	    119.94858606	      2.09349776	      5.14504858	      9.83604384	     13.98945725	      1.98209325	     41.87914313	      0.73092894	     22.36675521
     17.31333333	      5.49473790	     10.92254574	     12.60259947	      2.15195834	      1.06173774	      1.03208271	     12.28786119	    -12.11549602	     -8.04718726	    119.95491414	      2.09360821	      5.87278543	      5.75442210	     12.98944167	      2.75338983	     40.32295129	      0.70376826	     23.23730665
     17.32000000	      6.00446655	     10.09514108	     12.03159361	      2.15038387	      1.06445026	      1.03227444	     14.88445051	    -11.03109384	     -6.49780591	    119.95694972	      2.09364373	      6.67292815	      2.92501294	     11.73848634	      3.21851727	     38.84598606	      0.67799036	     23.83248883
     17.32666667	      5.96855757	      9.25297301	     11.24715340	      2.14837687	      1.06631894	      1.03260152	     18.22050756	     -9.95633149	     -4.71800704	    119.95542103	      2.09361705	      7.48284636	      0.70477502	     10.64453088	      3.35230104	     37.28098038	      0.65067586	     24.05118950
